<?xml version="1.0" encoding="UTF-8"?>
<svg version="1.1" xmlns="http://www.w3.org/2000/svg" width="586" height="456">
<path d="M0 0 C0.91894085 -0.00265183 1.83788171 -0.00530365 2.78466925 -0.00803584 C5.89270832 -0.01575222 9.00070804 -0.0162889 12.10875607 -0.01688576 C14.34811048 -0.02089884 16.58746417 -0.0253368 18.82681698 -0.03016531 C25.00318841 -0.04215388 31.17955203 -0.04778455 37.35593283 -0.05234647 C43.3259629 -0.05768374 49.29598482 -0.06766168 55.26600901 -0.07735593 C71.26594147 -0.10299428 87.26587873 -0.11802333 103.26582583 -0.13086639 C108.56503796 -0.13512047 113.86424975 -0.13968618 119.16346145 -0.14444971 C147.3348343 -0.16970985 175.50620773 -0.19175975 203.67758942 -0.20417786 C210.20566529 -0.20709923 216.73374115 -0.21006674 223.26181698 -0.21308327 C224.07285515 -0.21345418 224.88389333 -0.21382509 225.71950842 -0.21420723 C252.0145786 -0.22636242 278.30958184 -0.25730547 304.60462058 -0.29900479 C331.63358217 -0.34178985 358.6625084 -0.36841856 385.69150476 -0.37365257 C389.5089937 -0.37439302 393.32648257 -0.37530371 397.14397144 -0.37631035 C397.89529157 -0.37650096 398.6466117 -0.37669158 399.42069911 -0.37688797 C411.51293703 -0.38040181 423.60509113 -0.40070097 435.69729827 -0.42710699 C447.85250053 -0.45325027 460.00760592 -0.46097963 472.16283227 -0.4500057 C478.74831595 -0.44455474 485.33358564 -0.44776239 491.91903591 -0.47247124 C497.94765095 -0.49490228 503.97580694 -0.49427113 510.00442969 -0.47526737 C512.18553266 -0.47245877 514.36666636 -0.4781133 516.54771978 -0.4930803 C529.35554742 -0.57559799 539.06795694 -0.54053047 549.03794003 8.38701439 C556.94079188 17.13330033 556.73640587 26.72193735 556.6708746 37.88251305 C556.67548706 39.59225175 556.6818423 41.30198649 556.68978357 43.01171297 C556.70645235 47.696294 556.69824169 52.38054828 556.6858387 57.06513035 C556.67678058 62.12245446 556.69076168 67.17972277 556.70175838 72.23703575 C556.71953964 82.13863732 556.71570546 92.04011757 556.70410782 101.94172389 C556.69507275 109.98874346 556.69384982 118.03572904 556.69820309 126.08275223 C556.69881602 127.22822259 556.69942895 128.37369295 556.70006046 129.55387453 C556.70133936 131.88089289 556.70263621 134.20791123 556.70395082 136.53492957 C556.71535534 158.35213897 556.70224465 180.16928114 556.68074936 201.98647951 C556.66287612 220.70702025 556.66598462 239.42746177 556.6844244 258.14800072 C556.70582923 279.88891576 556.71425923 301.6297719 556.70197535 323.37069601 C556.70070115 325.6888281 556.69944367 328.0069602 556.69820309 330.32509232 C556.69758598 331.46565338 556.69696888 332.60621444 556.69633308 333.78133797 C556.6928792 341.81928944 556.6987093 349.85720354 556.7081213 357.89514923 C556.71933823 367.6897857 556.71630749 377.48429394 556.69499832 387.27891571 C556.68448424 392.2763737 556.68037232 397.27361787 556.69359493 402.2710743 C556.70551694 406.84614581 556.69895937 411.42080536 556.67768472 415.99583953 C556.6732179 417.65047569 556.67548676 419.30514668 556.68518788 420.95976043 C556.74471285 431.9560956 556.01702167 439.7593273 548.16294003 448.13701439 C547.50294003 448.13701439 546.84294003 448.13701439 546.16294003 448.13701439 C546.16294003 448.79701439 546.16294003 449.45701439 546.16294003 450.13701439 C544.56003473 450.95200001 542.95556725 451.76391366 541.35044003 452.57451439 C540.45711971 453.02697533 539.5637994 453.47943626 538.64340878 453.94560814 C533.83152863 456.25682616 529.62196824 456.28031057 524.38834953 456.27123547 C523.47616218 456.2735877 522.56397482 456.27593993 521.62414542 456.27836344 C518.53907834 456.28506962 515.45405322 456.28459473 512.36897945 456.28418541 C510.14612436 456.28748303 507.92326987 456.29120838 505.70041615 456.29532689 C499.56964958 456.30536666 493.4388928 456.30906686 487.30811918 456.3117162 C481.38213822 456.31521358 475.45616407 456.32336033 469.53018775 456.33126013 C453.64832599 456.35211516 437.76646236 456.36257624 421.8845901 456.37138974 C414.37229112 456.375595 406.85999294 456.38081717 399.34769464 456.38607427 C373.63609705 456.40396594 347.92449923 456.41896204 322.21289635 456.42639446 C320.59836191 456.42686922 318.98382747 456.42734511 317.36929304 456.42782212 C316.16828622 456.42817669 316.16828622 456.42817669 314.94301664 456.42853842 C310.88636024 456.42973962 306.82970384 456.43095507 302.77304745 456.4321804 C301.56545924 456.43254063 301.56545924 456.43254063 300.33347531 456.43290813 C274.2324234 456.44080079 248.13141693 456.46423119 222.03038486 456.49673635 C194.44012486 456.53103344 166.84989144 456.55074553 139.25960976 456.5540387 C136.23080002 456.55445625 133.2019903 456.55493581 130.17318058 456.55546188 C129.42739305 456.55558508 128.68160552 456.55570827 127.91321837 456.55583519 C115.91025878 456.55816745 103.90735194 456.57382893 91.90441115 456.59430373 C79.83883324 456.61455879 67.77331871 456.62004056 55.70772695 456.6105331 C49.17087963 456.60577586 42.63416976 456.60793605 36.09734249 456.62729454 C30.11318996 456.64486345 24.12933458 456.64397926 18.14517916 456.62839725 C15.9802295 456.62601165 13.81525961 456.6303938 11.65034097 456.6422259 C8.70600616 456.65732109 5.76272749 456.64768831 2.8184185 456.63199902 C1.97919964 456.64222122 1.13998078 456.65244343 0.27533105 456.6629754 C-8.26561688 456.56374259 -16.00577315 453.70145463 -22.30190372 447.85185814 C-27.69360775 441.82906407 -29.96045482 436.39471924 -29.96848774 428.32183266 C-29.97054037 427.62148159 -29.97259301 426.92113053 -29.97470784 426.19955671 C-29.98039608 423.83512496 -29.97891835 421.47075112 -29.97750187 419.10631371 C-29.98008446 417.40104535 -29.98309732 415.69577761 -29.98650527 413.9905107 C-29.99459099 409.29054846 -29.99636572 404.59060148 -29.99710274 399.89063311 C-29.99895057 394.82710579 -30.00649653 389.76358643 -30.01323795 384.70006371 C-30.02683297 373.62161334 -30.03284782 362.5431666 -30.03724861 351.46470928 C-30.04000907 344.55033923 -30.04424606 337.63597059 -30.04875278 330.72160149 C-30.06094699 311.5866066 -30.071246 292.45161284 -30.07462788 273.31661415 C-30.07484744 272.09138939 -30.07506701 270.86616463 -30.07529323 269.60381185 C-30.07551151 268.37561589 -30.07572978 267.14741994 -30.07595468 265.88200593 C-30.07639815 263.39311552 -30.07684471 260.90422511 -30.07729435 258.4153347 C-30.07751578 257.18075286 -30.07773721 255.94617103 -30.07796535 254.67417762 C-30.08191417 234.6651811 -30.09937009 214.65622098 -30.12265387 194.64723852 C-30.1463531 174.11591299 -30.15882908 153.58460573 -30.15999579 133.05326629 C-30.16091336 121.52100439 -30.16668619 109.98878992 -30.18481541 98.45654106 C-30.20019712 88.63724022 -30.20534827 78.81800146 -30.1970773 68.99869087 C-30.19316396 63.98724663 -30.19413376 58.97592747 -30.20813465 53.96449852 C-30.22083249 49.377597 -30.21971237 44.79091507 -30.20754394 40.20401403 C-30.20557978 38.54382656 -30.2086984 36.88362374 -30.2173883 35.22345784 C-30.22845135 32.96722521 -30.22101366 30.71177162 -30.20899677 28.45556068 C-30.20959386 27.20221121 -30.21019095 25.94886174 -30.21080613 24.65753198 C-29.38965726 16.9226858 -25.38992586 11.38199861 -19.83705997 6.13701439 C-13.26244528 1.25129155 -8.17941744 -0.01136524 0 0 Z " fill="#EDE14B" transform="translate(29.83705997467041,-0.13701438903808594)"/>
<path d="M0 0 C0.91894085 -0.00265183 1.83788171 -0.00530365 2.78466925 -0.00803584 C5.89270832 -0.01575222 9.00070804 -0.0162889 12.10875607 -0.01688576 C14.34811048 -0.02089884 16.58746417 -0.0253368 18.82681698 -0.03016531 C25.00318841 -0.04215388 31.17955203 -0.04778455 37.35593283 -0.05234647 C43.3259629 -0.05768374 49.29598482 -0.06766168 55.26600901 -0.07735593 C71.26594147 -0.10299428 87.26587873 -0.11802333 103.26582583 -0.13086639 C108.56503796 -0.13512047 113.86424975 -0.13968618 119.16346145 -0.14444971 C147.3348343 -0.16970985 175.50620773 -0.19175975 203.67758942 -0.20417786 C210.20566529 -0.20709923 216.73374115 -0.21006674 223.26181698 -0.21308327 C224.07285515 -0.21345418 224.88389333 -0.21382509 225.71950842 -0.21420723 C252.0145786 -0.22636242 278.30958184 -0.25730547 304.60462058 -0.29900479 C331.63358217 -0.34178985 358.6625084 -0.36841856 385.69150476 -0.37365257 C389.5089937 -0.37439302 393.32648257 -0.37530371 397.14397144 -0.37631035 C397.89529157 -0.37650096 398.6466117 -0.37669158 399.42069911 -0.37688797 C411.51293703 -0.38040181 423.60509113 -0.40070097 435.69729827 -0.42710699 C447.85250053 -0.45325027 460.00760592 -0.46097963 472.16283227 -0.4500057 C478.74831595 -0.44455474 485.33358564 -0.44776239 491.91903591 -0.47247124 C497.94765095 -0.49490228 503.97580694 -0.49427113 510.00442969 -0.47526737 C512.18553266 -0.47245877 514.36666636 -0.4781133 516.54771978 -0.4930803 C529.35554742 -0.57559799 539.06795694 -0.54053047 549.03794003 8.38701439 C556.94079188 17.13330033 556.73640587 26.72193735 556.6708746 37.88251305 C556.67548706 39.59225175 556.6818423 41.30198649 556.68978357 43.01171297 C556.70645235 47.696294 556.69824169 52.38054828 556.6858387 57.06513035 C556.67678058 62.12245446 556.69076168 67.17972277 556.70175838 72.23703575 C556.71953964 82.13863732 556.71570546 92.04011757 556.70410782 101.94172389 C556.69507275 109.98874346 556.69384982 118.03572904 556.69820309 126.08275223 C556.69881602 127.22822259 556.69942895 128.37369295 556.70006046 129.55387453 C556.70133936 131.88089289 556.70263621 134.20791123 556.70395082 136.53492957 C556.71535534 158.35213897 556.70224465 180.16928114 556.68074936 201.98647951 C556.66287612 220.70702025 556.66598462 239.42746177 556.6844244 258.14800072 C556.70582923 279.88891576 556.71425923 301.6297719 556.70197535 323.37069601 C556.70070115 325.6888281 556.69944367 328.0069602 556.69820309 330.32509232 C556.69758598 331.46565338 556.69696888 332.60621444 556.69633308 333.78133797 C556.6928792 341.81928944 556.6987093 349.85720354 556.7081213 357.89514923 C556.71933823 367.6897857 556.71630749 377.48429394 556.69499832 387.27891571 C556.68448424 392.2763737 556.68037232 397.27361787 556.69359493 402.2710743 C556.70551694 406.84614581 556.69895937 411.42080536 556.67768472 415.99583953 C556.6732179 417.65047569 556.67548676 419.30514668 556.68518788 420.95976043 C556.74471285 431.9560956 556.01702167 439.7593273 548.16294003 448.13701439 C547.50294003 448.13701439 546.84294003 448.13701439 546.16294003 448.13701439 C546.16294003 448.79701439 546.16294003 449.45701439 546.16294003 450.13701439 C544.56003473 450.95200001 542.95556725 451.76391366 541.35044003 452.57451439 C540.45711971 453.02697533 539.5637994 453.47943626 538.64340878 453.94560814 C533.83152863 456.25682616 529.62196824 456.28031057 524.38834953 456.27123547 C523.47616218 456.2735877 522.56397482 456.27593993 521.62414542 456.27836344 C518.53907834 456.28506962 515.45405322 456.28459473 512.36897945 456.28418541 C510.14612436 456.28748303 507.92326987 456.29120838 505.70041615 456.29532689 C499.56964958 456.30536666 493.4388928 456.30906686 487.30811918 456.3117162 C481.38213822 456.31521358 475.45616407 456.32336033 469.53018775 456.33126013 C453.64832599 456.35211516 437.76646236 456.36257624 421.8845901 456.37138974 C414.37229112 456.375595 406.85999294 456.38081717 399.34769464 456.38607427 C373.63609705 456.40396594 347.92449923 456.41896204 322.21289635 456.42639446 C320.59836191 456.42686922 318.98382747 456.42734511 317.36929304 456.42782212 C316.16828622 456.42817669 316.16828622 456.42817669 314.94301664 456.42853842 C310.88636024 456.42973962 306.82970384 456.43095507 302.77304745 456.4321804 C301.56545924 456.43254063 301.56545924 456.43254063 300.33347531 456.43290813 C274.2324234 456.44080079 248.13141693 456.46423119 222.03038486 456.49673635 C194.44012486 456.53103344 166.84989144 456.55074553 139.25960976 456.5540387 C136.23080002 456.55445625 133.2019903 456.55493581 130.17318058 456.55546188 C129.42739305 456.55558508 128.68160552 456.55570827 127.91321837 456.55583519 C115.91025878 456.55816745 103.90735194 456.57382893 91.90441115 456.59430373 C79.83883324 456.61455879 67.77331871 456.62004056 55.70772695 456.6105331 C49.17087963 456.60577586 42.63416976 456.60793605 36.09734249 456.62729454 C30.11318996 456.64486345 24.12933458 456.64397926 18.14517916 456.62839725 C15.9802295 456.62601165 13.81525961 456.6303938 11.65034097 456.6422259 C8.70600616 456.65732109 5.76272749 456.64768831 2.8184185 456.63199902 C1.97919964 456.64222122 1.13998078 456.65244343 0.27533105 456.6629754 C-8.26561688 456.56374259 -16.00577315 453.70145463 -22.30190372 447.85185814 C-27.69360775 441.82906407 -29.96045482 436.39471924 -29.96848774 428.32183266 C-29.97054037 427.62148159 -29.97259301 426.92113053 -29.97470784 426.19955671 C-29.98039608 423.83512496 -29.97891835 421.47075112 -29.97750187 419.10631371 C-29.98008446 417.40104535 -29.98309732 415.69577761 -29.98650527 413.9905107 C-29.99459099 409.29054846 -29.99636572 404.59060148 -29.99710274 399.89063311 C-29.99895057 394.82710579 -30.00649653 389.76358643 -30.01323795 384.70006371 C-30.02683297 373.62161334 -30.03284782 362.5431666 -30.03724861 351.46470928 C-30.04000907 344.55033923 -30.04424606 337.63597059 -30.04875278 330.72160149 C-30.06094699 311.5866066 -30.071246 292.45161284 -30.07462788 273.31661415 C-30.07484744 272.09138939 -30.07506701 270.86616463 -30.07529323 269.60381185 C-30.07551151 268.37561589 -30.07572978 267.14741994 -30.07595468 265.88200593 C-30.07639815 263.39311552 -30.07684471 260.90422511 -30.07729435 258.4153347 C-30.07751578 257.18075286 -30.07773721 255.94617103 -30.07796535 254.67417762 C-30.08191417 234.6651811 -30.09937009 214.65622098 -30.12265387 194.64723852 C-30.1463531 174.11591299 -30.15882908 153.58460573 -30.15999579 133.05326629 C-30.16091336 121.52100439 -30.16668619 109.98878992 -30.18481541 98.45654106 C-30.20019712 88.63724022 -30.20534827 78.81800146 -30.1970773 68.99869087 C-30.19316396 63.98724663 -30.19413376 58.97592747 -30.20813465 53.96449852 C-30.22083249 49.377597 -30.21971237 44.79091507 -30.20754394 40.20401403 C-30.20557978 38.54382656 -30.2086984 36.88362374 -30.2173883 35.22345784 C-30.22845135 32.96722521 -30.22101366 30.71177162 -30.20899677 28.45556068 C-30.20959386 27.20221121 -30.21019095 25.94886174 -30.21080613 24.65753198 C-29.38965726 16.9226858 -25.38992586 11.38199861 -19.83705997 6.13701439 C-13.26244528 1.25129155 -8.17941744 -0.01136524 0 0 Z M-14.83705997 100.13701439 C-14.94018497 154.60763939 -15.04330997 209.07826439 -15.14955997 265.19951439 C-15.19507999 282.41631371 -15.24060001 299.63311302 -15.28749943 317.37163353 C-15.30421873 332.76749742 -15.30421873 332.76749742 -15.3142786 348.16336632 C-15.31894809 355.03564532 -15.33731743 361.90772192 -15.36493778 368.77994347 C-15.39673445 376.70296781 -15.41124681 384.6257975 -15.40428473 392.54888615 C-15.40126872 396.60314038 -15.40609539 400.65695941 -15.43313563 404.71113408 C-15.4574394 408.37726668 -15.45869673 412.04265572 -15.44156551 415.70882225 C-15.43843964 417.66227429 -15.46001433 419.61571762 -15.48246384 421.56904316 C-15.43160248 427.53333559 -15.26534085 431.99822174 -11.49560899 436.78416437 C-6.1527202 441.14226724 -1.38449834 441.5698195 5.20852566 441.51453781 C6.11355432 441.51889813 7.01858298 441.52325846 7.95103675 441.52775091 C10.99378709 441.53872826 14.0360863 441.52827343 17.07883358 441.51796532 C19.27825672 441.52142089 21.47767812 441.52618477 23.67709589 441.53214705 C29.72904188 441.54470043 35.78084642 441.53846691 41.832793 441.52918839 C47.68666643 441.52311127 53.54050949 441.53108625 59.39437874 441.53863049 C72.10781234 441.55443494 84.82120074 441.55305567 97.53463866 441.54439375 C108.66029129 441.53685073 119.78592733 441.53487528 130.91158199 441.53846169 C132.01804146 441.53880542 132.01804146 441.53880542 133.14685365 441.5391561 C136.14108124 441.54009009 139.13530883 441.54104529 142.1295364 441.54203539 C170.22471252 441.55121492 198.31985982 441.54288799 226.41503149 441.5267447 C251.38261148 441.5125076 276.35014558 441.51378147 301.31772518 441.52812767 C329.36111261 441.5441873 357.40447458 441.55056394 385.44786596 441.54129088 C388.43667666 441.54032871 391.42548735 441.53939019 394.41429806 441.53846169 C395.15023372 441.53822445 395.88616939 441.53798722 396.64440614 441.5377428 C407.76378586 441.53432862 418.8831472 441.53832449 430.00252438 441.54590034 C442.64420576 441.55447037 455.28583482 441.55235021 467.92750967 441.53605811 C474.38082512 441.52815903 480.83404728 441.5251117 487.2873621 441.53500557 C493.19035122 441.54391902 499.09316022 441.53907494 504.99613291 441.52307291 C507.13601743 441.51971088 509.27591705 441.52145089 511.41579193 441.52870028 C514.31653144 441.53777645 517.21664782 441.52851308 520.11735439 441.51453781 C520.95499335 441.52156131 521.7926323 441.52858481 522.65565425 441.53582114 C528.43622498 441.47987055 532.27321852 440.22415318 537.03601134 436.78416437 C541.56395012 432.13243776 541.87258694 427.90507713 541.93742466 421.56904316 C541.91121068 419.6683172 541.91121068 419.6683172 541.88446712 417.72919273 C541.88709408 416.36113834 541.89236005 414.99308691 541.90003109 413.6250515 C541.91346493 409.8681192 541.88944462 406.11221631 541.8593764 402.3554147 C541.83315217 398.24121176 541.84194563 394.1270553 541.84628391 390.01279163 C541.84947237 382.02840714 541.82178377 374.04442791 541.78327594 366.06014752 C541.74006294 356.82364493 541.73530681 347.58738548 541.73056698 338.35075951 C541.69906939 313.96694694 541.61530263 289.58322458 541.53794003 265.19951439 C541.35231503 183.49357689 541.35231503 183.49357689 541.16294003 100.13701439 C357.68294003 100.13701439 174.20294003 100.13701439 -14.83705997 100.13701439 Z " fill="#4367BF" transform="translate(29.83705997467041,-0.13701438903808594)"/>
<path d="M0 0 C2.76708094 2.76708094 1.28498625 11.08713768 1.3125 14.8125 C1.35600586 16.75866211 1.35600586 16.75866211 1.40039062 18.74414062 C1.40876953 19.99001953 1.41714844 21.23589844 1.42578125 22.51953125 C1.44036377 23.66526611 1.45494629 24.81100098 1.4699707 25.99145508 C0.88958738 29.70681283 -0.02851618 30.75582673 -3 33 C-5.42822266 34.21337891 -5.42822266 34.21337891 -8.1640625 35.2265625 C-9.19144531 35.61376465 -10.21882813 36.0009668 -11.27734375 36.39990234 C-12.38207031 36.80418457 -13.48679687 37.2084668 -14.625 37.625 C-16.9714612 38.50492295 -19.31781212 39.38514006 -21.6640625 40.265625 C-22.87223633 40.71486328 -24.08041016 41.16410156 -25.32519531 41.62695312 C-31.23296129 43.83431931 -37.11568454 46.10602979 -43 48.375 C-44.05396973 48.77928223 -45.10793945 49.18356445 -46.19384766 49.60009766 C-47.20237793 49.9872998 -48.2109082 50.37450195 -49.25 50.7734375 C-50.21292969 51.14307617 -51.17585938 51.51271484 -52.16796875 51.89355469 C-55.78120883 53.30521021 -59.36457418 54.78623855 -62.94140625 56.28759766 C-65 57 -65 57 -68 57 C-68 57.66 -68 58.32 -68 59 C-67.19187866 59.25849731 -67.19187866 59.25849731 -66.36743164 59.5222168 C-60.62253961 61.39392573 -55.03048495 63.53091111 -49.4375 65.8125 C-32.97743197 72.48653342 -32.97743197 72.48653342 -16.125 78.0625 C-3.06050532 81.93949468 -3.06050532 81.93949468 1 86 C1.10005826 88.12180138 1.13081087 90.24693539 1.1328125 92.37109375 C1.13410156 93.66724609 1.13539063 94.96339844 1.13671875 96.29882812 C1.13462402 96.9776001 1.1325293 97.65637207 1.13037109 98.35571289 C1.1250313 100.42536789 1.13031193 102.494805 1.13671875 104.56445312 C1.13542969 105.86189453 1.13414062 107.15933594 1.1328125 108.49609375 C1.13168457 109.69419678 1.13055664 110.8922998 1.12939453 112.12670898 C1 115 1 115 0 117 C-4.80402082 117.28173957 -8.0289736 116.44313149 -12.4375 114.5625 C-13.75458493 114.01152822 -15.07234094 113.46215897 -16.390625 112.9140625 C-17.47827148 112.45821777 -17.47827148 112.45821777 -18.58789062 111.99316406 C-23.2593404 110.06973717 -27.97795615 108.26512951 -32.6875 106.4375 C-38.52562474 104.16251703 -44.35728757 101.8869159 -50.125 99.4375 C-56.43783529 96.76382859 -62.85263054 94.36059482 -69.26611328 91.94116211 C-77.24396416 88.9285629 -85.16634639 85.80908671 -93 82.4375 C-97.49401912 80.52552014 -101.8633481 79.13423527 -106.6484375 78.1640625 C-110.49100824 76.26192615 -112.94524919 73.76869755 -115 70 C-115.77616722 66.11339313 -115.70595223 62.38621142 -115.5625 58.4375 C-115.56056641 57.42236328 -115.55863281 56.40722656 -115.55664062 55.36132812 C-115.46100525 49.93844811 -115.26652767 45.54442201 -112 41 C-107.70722542 37.60797775 -102.14990836 36.01890565 -97.0625 34.125 C-96.12607666 33.77203857 -95.18965332 33.41907715 -94.22485352 33.05541992 C-88.98092665 31.08641345 -83.72045129 29.17394257 -78.4375 27.3125 C-74.33592644 25.86686342 -70.31384596 24.32805221 -66.3125 22.625 C-55.5846556 18.07032107 -44.55203246 14.24506791 -33.5625 10.375 C-29.25478349 8.84726333 -25.02376913 7.21379172 -20.8125 5.4375 C-16.89273028 3.78458506 -12.96962682 2.1550151 -9 0.625 C-8.13375 0.28726563 -7.2675 -0.05046875 -6.375 -0.3984375 C-3.78568388 -1.05428402 -2.47353574 -0.93861847 0 0 Z " fill="#34C581" transform="translate(216,210)"/>
<path d="M0 0 C5.36260328 0.62435413 9.87178756 2.38956187 14.8125 4.4375 C16.59496166 5.16298262 18.37751833 5.88823183 20.16015625 6.61328125 C21.10391113 6.9995166 22.04766602 7.38575195 23.02001953 7.78369141 C28.25425183 9.92009525 33.50185827 12.02304442 38.75 14.125 C39.8237085 14.55554688 40.89741699 14.98609375 42.00366211 15.4296875 C47.60419197 17.6683496 53.21549029 19.85273368 58.875 21.9375 C67.48072467 25.11331356 75.94862051 28.62213604 84.42333984 32.13061523 C89.95921217 34.41016318 95.4750101 36.56084634 101.17456055 38.39379883 C103.34525745 39.11465484 105.39122041 39.97898732 107.4375 41 C108.07558594 41.309375 108.71367187 41.61875 109.37109375 41.9375 C111 43 111 43 113 46 C113.44366589 50.27733358 113.32411568 54.57719761 113.3125 58.875 C113.32861328 60.05964844 113.34472656 61.24429688 113.36132812 62.46484375 C113.36197266 63.60824219 113.36261719 64.75164062 113.36328125 65.9296875 C113.36626221 66.97366699 113.36924316 68.01764648 113.37231445 69.09326172 C112.93547451 72.50376422 112.12209146 74.30166723 110 77 C107.8203125 78.30737305 107.8203125 78.30737305 105.125 79.32421875 C104.0525 79.73720215 102.98 80.15018555 101.875 80.57568359 C100.58355529 81.05105914 99.29186877 81.52577806 98 82 C96.43715019 82.58712306 94.87467349 83.17523993 93.3125 83.76416016 C86.95904145 86.14914629 80.58988755 88.49128765 74.22119141 90.83520508 C62.54645687 95.13615171 50.9396835 99.56265176 39.40722656 104.23266602 C33.94458075 106.43878648 28.43239951 108.50613211 22.90625 110.546875 C20.12565017 111.57473421 17.35757763 112.63099222 14.59375 113.703125 C13.86704102 113.98269043 13.14033203 114.26225586 12.39160156 114.55029297 C11.00093212 115.08582436 9.61213015 115.6262401 8.22558594 116.17236328 C4.87849359 117.45314721 2.64778597 118 -1 118 C-3.11375026 113.77249948 -2.26787194 108.27435621 -2.29516602 103.6237793 C-2.3124085 101.57338028 -2.35630254 99.52458239 -2.40039062 97.47460938 C-2.40876953 96.18490234 -2.41714844 94.89519531 -2.42578125 93.56640625 C-2.44036377 92.37990479 -2.45494629 91.19340332 -2.4699707 89.97094727 C-2 87 -2 87 -0.1628418 85.1652832 C2.64467015 83.6526684 5.47620125 82.63974327 8.5 81.625 C15.13793401 79.38698096 21.54487436 76.71780568 28 74 C33.06644843 71.88866857 38.13910882 69.79229088 43.21191406 67.69628906 C44.75206515 67.05932517 46.29177109 66.42128398 47.83105469 65.78222656 C50.08420617 64.84697405 52.33881097 63.91530793 54.59375 62.984375 C55.2791687 62.69898865 55.9645874 62.41360229 56.67077637 62.11956787 C59.74489657 60.85442913 62.73579243 59.66569926 66 59 C59.87752386 56.01149113 53.66909833 53.45650748 47.23046875 51.234375 C45.720391 50.70687755 44.21055191 50.17869646 42.70092773 49.64990234 C41.92627167 49.37877625 41.1516156 49.10765015 40.35348511 48.82830811 C34.23037902 46.67328346 28.1315754 44.45140343 22.03857422 42.21289062 C20.4927525 41.64693584 18.94550768 41.08485523 17.39697266 40.52636719 C15.11018092 39.7011233 12.82820707 38.86363817 10.546875 38.0234375 C9.86042908 37.77854584 9.17398315 37.53365417 8.46673584 37.28134155 C3.83494981 35.55484609 -0.69973605 33.6005279 -3 29 C-3.26999572 24.88051986 -3.23161547 20.75232724 -3.25 16.625 C-3.270625 15.47515625 -3.29125 14.3253125 -3.3125 13.140625 C-3.31765625 12.03460938 -3.3228125 10.92859375 -3.328125 9.7890625 C-3.3374707 8.77537598 -3.34681641 7.76168945 -3.35644531 6.71728516 C-2.95223216 3.63585201 -2.05814974 2.27890838 0 0 Z " fill="#34C581" transform="translate(358,209)"/>
<path d="M0 0 C0.70592285 0.00338379 1.4118457 0.00676758 2.13916016 0.01025391 C20.68946376 0.18946376 20.68946376 0.18946376 23.625 3.125 C23.27086135 8.70656197 21.59036479 13.68525582 19.74609375 18.93359375 C19.45863785 19.76810562 19.17118195 20.60261749 18.87501526 21.4624176 C17.94309871 24.1644135 17.00274092 26.86339094 16.0625 29.5625 C15.08865397 32.380807 14.11702816 35.19987355 13.14541626 38.01895142 C12.50632931 39.87254083 11.86650264 41.72587536 11.22592163 43.57894897 C8.97943503 50.07932473 6.77917575 56.59341311 4.625 63.125 C-4.32728253 90.14434777 -13.57144271 117.07146789 -23.20263672 143.85644531 C-24.31242574 146.95054265 -25.409378 150.048916 -26.50390625 153.1484375 C-27.1269594 154.89085569 -27.7506052 156.63306214 -28.375 158.375 C-28.77513306 159.5194458 -28.77513306 159.5194458 -29.18334961 160.68701172 C-31.58500047 167.30651816 -31.58500047 167.30651816 -34.375 169.125 C-40.84808754 171.77747278 -47.41060869 171.35201772 -54.3125 171.25 C-55.47330078 171.24097656 -56.63410156 171.23195313 -57.83007812 171.22265625 C-60.67860108 171.19921162 -63.52669078 171.16639522 -66.375 171.125 C-69.58861347 164.18992223 -69.6142595 159.84277849 -67.1875 152.5625 C-66.59458742 151.07878639 -65.98851965 149.60031184 -65.375 148.125 C-61.95468622 139.87050414 -58.82169772 131.62367763 -56.0625 123.125 C-53.22130241 114.38427114 -49.98323241 105.85101956 -46.57983398 97.31518555 C-44.43059715 91.90069972 -42.40836489 86.48324113 -40.625 80.9375 C-38.90883008 75.62554547 -36.94229063 70.51804901 -34.75 65.38671875 C-30.10186405 54.36060081 -25.98524791 43.14713309 -22.08398438 31.83837891 C-19.83360396 25.34893921 -17.44886185 18.91704231 -15 12.5 C-14.65396729 11.5927417 -14.30793457 10.6854834 -13.95141602 9.75073242 C-11.51811388 3.41122776 -11.51811388 3.41122776 -10.375 1.125 C-6.84937111 -0.05020963 -3.6672463 -0.02495896 0 0 Z " fill="#34C581" transform="translate(310.375,183.875)"/>
<path d="M0 0 C6.5898237 4.96751977 11.02345921 11.72767154 12.46484375 19.91796875 C12.93450061 27.8386682 10.30496392 35.68506429 5.1796875 41.75390625 C-0.95535803 47.41151633 -7.42367532 50.12294364 -15.828125 50.04296875 C-16.52921387 50.03724854 -17.23030273 50.03152832 -17.95263672 50.02563477 C-25.89015043 49.75284588 -30.86903377 46.97858356 -36.265625 41.35546875 C-41.1514218 35.06789738 -43.71914112 27.96383319 -43.33203125 19.984375 C-41.99179493 11.34883173 -36.88318609 4.64173148 -30.28515625 -0.84375 C-21.79435139 -6.1856471 -8.28835262 -4.96466759 0 0 Z " fill="#32C382" transform="translate(469.953125,28.45703125)"/>
<path d="M0 0 C1.12994385 0.00966797 1.12994385 0.00966797 2.28271484 0.01953125 C10.76065693 0.2979169 15.75273608 3.22665226 21.5625 9.3125 C26.47963517 15.41613646 28.2723395 21.15922938 27.9609375 28.9921875 C26.90966106 38.63389425 22.26647732 44.73995513 14.984375 50.953125 C8.47673257 55.11567106 -0.89779808 54.66987924 -8.3125 53.5 C-15.45591049 51.04417255 -20.71810828 46.10590911 -24.3125 39.5 C-27.21699421 32.22368925 -27.696324 24.12098373 -25.4375 16.578125 C-20.52675138 5.91663128 -11.74218323 -0.10439816 0 0 Z " fill="#32C482" transform="translate(523.3125,24.5)"/>
<path d="M0 0 C0.70374756 0.00644531 1.40749512 0.01289063 2.13256836 0.01953125 C10.51915519 0.31187415 16.40324971 3.22823673 22.1875 9.3125 C27.622335 16.17013379 29.19625658 22.82147536 28.25 31.5 C26.8147024 39.85849778 22.03324788 45.95544181 15.2890625 50.953125 C8.28484621 54.76384804 -0.05021445 54.50600213 -7.75 53.5 C-14.87679922 50.99326959 -20.15209367 46.1123684 -23.75 39.5 C-26.65449421 32.22368925 -27.133824 24.12098373 -24.875 16.578125 C-20.12909126 6.27450735 -11.53025761 -0.11035059 0 0 Z " fill="#32C482" transform="translate(382.75,24.5)"/>
<path d="M0 0 C0.66 0.33 1.32 0.66 2 1 C0.90344712 2.31886772 -0.20253423 3.62990057 -1.3125 4.9375 C-1.92738281 5.66839844 -2.54226562 6.39929688 -3.17578125 7.15234375 C-5 9 -5 9 -8 10 C-6.34908222 5.70761377 -3.26245434 3.1206085 0 0 Z " fill="#253A6D" transform="translate(12,4)"/>
</svg>
